<?xml version="1.0" encoding="UTF-8"?>
<!DOCTYPE svg PUBLIC "-//W3C//DTD SVG 1.1//EN" "http://www.w3.org/Graphics/SVG/1.1/DTD/svg11.dtd">
<svg version="1.1" xmlns="http://www.w3.org/2000/svg" xmlns:xlink="http://www.w3.org/1999/xlink" x="0" y="0" width="16" height="24" viewBox="0, 0, 16, 24">
  <defs>
    <linearGradient id="Gradient_1" gradientUnits="userSpaceOnUse" x1="0" y1="12" x2="16" y2="12">
      <stop offset="0" stop-color="#FFFFFF" stop-opacity="0.568"/>
      <stop offset="0" stop-color="#FFFFFF" stop-opacity="0"/>
      <stop offset="0" stop-color="#FFFFFF" stop-opacity="0.568"/>
      <stop offset="0.266" stop-color="#FFFFFF" stop-opacity="0.156"/>
      <stop offset="0.468" stop-color="#FFFFFF" stop-opacity="0.403"/>
      <stop offset="0.55" stop-color="#6F6F6F" stop-opacity="0.399"/>
      <stop offset="1" stop-color="#000000" stop-opacity="0.357"/>
      <stop offset="1" stop-color="#000000" stop-opacity="0.21"/>
    </linearGradient>
  </defs>
  <g id="Layer_1">
    <path d="M1,0 L15,0 C15.552,0 16,0.448 16,1 L16,23 C16,23.552 15.552,24 15,24 L1,24 C0.448,24 0,23.552 0,23 L0,1 C0,0.448 0.448,0 1,0 z" fill="#E0E5AB"/>
    <path d="M8.5,2.063 L8.5,22.959" fill-opacity="0" stroke="#FF0000" stroke-width="1"/>
    <path d="M1,0 L15,0 C15.552,0 16,0.448 16,1 L16,23 C16,23.552 15.552,24 15,24 L1,24 C0.448,24 0,23.552 0,23 L0,1 C0,0.448 0.448,0 1,0 z" fill="url(#Gradient_1)"/>
  </g>
</svg>
